<svg xmlns="http://www.w3.org/2000/svg" viewBox="0 0 215.03 119.45"><defs><style>.cls-1{fill:#d51f31;}.cls-2{fill:#231f20;}</style></defs><g id="Layer_2" data-name="Layer 2"><g id="Layer_1-2" data-name="Layer 1"><path class="cls-1" d="M9.49,71.15H2.19V35.41h8.44L26.15,58.73V35.41h7.3V71.15H25.92L9.49,46.5Z"/><path class="cls-2" d="M46.91,40.25A18,18,0,0,1,60.1,34.86a17.84,17.84,0,0,1,13.05,5.3,17.38,17.38,0,0,1,5.39,13A18.54,18.54,0,0,1,59.92,71.69a17.91,17.91,0,0,1-13.1-5.34,17.57,17.57,0,0,1-5.38-13A17.64,17.64,0,0,1,46.91,40.25Zm2.1,13a11.07,11.07,0,0,0,3.2,8,10.89,10.89,0,0,0,15.6,0,11.07,11.07,0,0,0,3.2-8,10.9,10.9,0,0,0-3.2-7.94,10.91,10.91,0,0,0-15.6,0A10.9,10.9,0,0,0,49,53.25Z"/><path class="cls-2" d="M105.74,71.15l-7.4-12.83H93.87V71.15H86.48V35.41h14.1a13.66,13.66,0,0,1,9,3c2.42,2,3.61,4.74,3.61,8.35,0,5.2-2.46,8.67-7.35,10.45l8.08,14ZM93.87,51.48H100c3.1,0,5.71-1.51,5.71-4.61s-2.52-4.48-5.76-4.48H93.87Z"/><path class="cls-2" d="M128.41,42.58H117.69V35.41h28.8v7.17H135.76V71.15h-7.35Z"/><path class="cls-2" d="M160.81,71.15h-7.39V35.41h7.39v14.1h15V35.41h7.4V71.15h-7.4V56.68h-15Z"/><path class="cls-2" d="M5.38,88a17.88,17.88,0,0,1,13.15-5.39,18.27,18.27,0,0,1,9.9,2.83,14.92,14.92,0,0,1,6.3,7.72L28,96.27a9.84,9.84,0,0,0-9.5-6.44,10.29,10.29,0,0,0-7.71,3.25A11,11,0,0,0,7.67,101a11.32,11.32,0,0,0,3.05,8,10.25,10.25,0,0,0,7.76,3.24,10.23,10.23,0,0,0,9.59-6.61l6.8,3.14a15,15,0,0,1-6.44,7.81,19,19,0,0,1-10,2.83A18,18,0,0,1,0,101.06,17.6,17.6,0,0,1,5.38,88Z"/><path class="cls-2" d="M45.27,88a18,18,0,0,1,13.19-5.39,17.84,17.84,0,0,1,13.05,5.3,17.38,17.38,0,0,1,5.39,13,18.54,18.54,0,0,1-18.62,18.57,17.9,17.9,0,0,1-13.1-5.34A18.38,18.38,0,0,1,45.27,88Zm2.1,13a11.09,11.09,0,0,0,3.19,8,10.9,10.9,0,0,0,15.61,0,11.06,11.06,0,0,0,3.2-8,10.89,10.89,0,0,0-3.2-7.94,10.9,10.9,0,0,0-15.61,0A10.92,10.92,0,0,0,47.37,101Z"/><path class="cls-2" d="M110.48,114c-3.65,3.28-8.58,4.93-14.83,4.93H84.83V83.17h11c6.25,0,11.18,1.55,14.78,4.7S116,95.36,116,101A16.67,16.67,0,0,1,110.48,114Zm-5.57-21A13.54,13.54,0,0,0,96,90.15H92.23v21.77h3.65a13.65,13.65,0,0,0,9.08-2.87,10.1,10.1,0,0,0,3.42-8.08A9.58,9.58,0,0,0,104.91,93Z"/><path class="cls-2" d="M147.4,83.17v6.94H131.29v7.26h14.42v6.93H131.29V112h16.2v6.9H124V83.17Z"/><path class="cls-2" d="M175.33,118.91l-7.4-12.83h-4.47v12.83h-7.39V83.17h14.1a13.71,13.71,0,0,1,9,3c2.41,2,3.6,4.74,3.6,8.35,0,5.2-2.46,8.67-7.35,10.45l8.08,14ZM163.46,99.24h6.16c3.1,0,5.71-1.51,5.71-4.61s-2.51-4.48-5.75-4.48h-6.12Z"/><path class="cls-2" d="M215,108.41a10.19,10.19,0,0,1-3.47,8c-2.33,2-5.52,3-9.63,3-6.71,0-11.82-3.24-14-8.39l6.39-3.29a8.25,8.25,0,0,0,7.81,5c3.15,0,5.43-1.6,5.43-3.79a2.76,2.76,0,0,0-1.42-2.47,20.07,20.07,0,0,0-5.34-2.14c-4.15-1.23-7.07-2.69-8.71-4.34a8.83,8.83,0,0,1-2.74-6.62A9.58,9.58,0,0,1,193,85.68a13.22,13.22,0,0,1,8.81-3.06c6,0,10.49,2.79,12.55,7.72l-6.12,3.33a6.72,6.72,0,0,0-6.75-4.38c-2.92,0-4.75,1.5-4.75,3.65s1.69,3.24,5.75,4.38C211.06,99.74,215,102.71,215,108.41Z"/><path class="cls-1" d="M16.9,8.08,10.06,23.87H3.26L14.16,0h5.62l11,23.87H23.84L17,8.08Z"/></g></g></svg>